<mxfile host="Electron" agent="Mozilla/5.0 (Macintosh; Intel Mac OS X 10_15_7) AppleWebKit/537.36 (KHTML, like Gecko) draw.io/28.0.6 Chrome/138.0.7204.100 Electron/37.2.3 Safari/537.36" version="28.0.6" pages="2">
  <diagram id="mfvP53huj2iRcH7EizIU" name="Page-1">
    <mxGraphModel dx="1234" dy="883" grid="1" gridSize="10" guides="1" tooltips="1" connect="1" arrows="1" fold="1" page="1" pageScale="1" pageWidth="850" pageHeight="1100" math="0" shadow="0">
      <root>
        <mxCell id="0" />
        <mxCell id="1" parent="0" />
        <mxCell id="9_TuVH1ARKfoisOt2Kd9-9" value="" style="rounded=1;whiteSpace=wrap;html=1;fillColor=#dae8fc;strokeColor=#6c8ebf;strokeWidth=1;" parent="1" vertex="1">
          <mxGeometry x="461" y="230" width="39" height="90" as="geometry" />
        </mxCell>
        <mxCell id="WyTX-RN73b4iVx-SWu1v-1" value="&lt;font style=&quot;font-size: 22px&quot;&gt;&lt;b&gt;CryptoCore&lt;/b&gt;&lt;/font&gt;" style="whiteSpace=wrap;html=1;rounded=1;arcSize=7;strokeWidth=3;fillColor=#f5f5f5;strokeColor=#666666;fontColor=#333333;" parent="1" vertex="1">
          <mxGeometry x="230" y="190" width="245" height="170" as="geometry" />
        </mxCell>
        <mxCell id="WyTX-RN73b4iVx-SWu1v-6" value="start" style="text;html=1;align=center;verticalAlign=middle;whiteSpace=wrap;rounded=0;fontSize=10;spacingLeft=1;strokeColor=#005700;fillColor=#008a00;fontColor=#ffffff;spacingBottom=3;" parent="1" vertex="1">
          <mxGeometry x="210" y="220" width="40" height="20" as="geometry" />
        </mxCell>
        <mxCell id="JBD0LgWiBs-crhYszTgG-2" value="&lt;span style=&quot;font-size: 16px;&quot;&gt;&lt;span style=&quot;font-size: 16px;&quot;&gt;out_data&lt;/span&gt;&lt;/span&gt;" style="rounded=0;whiteSpace=wrap;html=1;fillColor=#dae8fc;strokeColor=#6c8ebf;align=center;fontSize=16;horizontal=0;verticalAlign=top;spacing=0;strokeWidth=1;spacingBottom=7;spacingTop=-3;fontColor=#333333;fontStyle=0" parent="1" vertex="1">
          <mxGeometry x="429" y="230" width="45" height="90" as="geometry" />
        </mxCell>
        <mxCell id="9_TuVH1ARKfoisOt2Kd9-5" value="" style="endArrow=block;html=1;strokeWidth=4;endFill=1;endSize=0;startSize=0;fillColor=#60a917;shadow=0;sketch=0;strokeColor=#2D7600;" parent="1" edge="1">
          <mxGeometry width="50" height="50" relative="1" as="geometry">
            <mxPoint x="191" y="230" as="sourcePoint" />
            <mxPoint x="211" y="230" as="targetPoint" />
          </mxGeometry>
        </mxCell>
        <mxCell id="JBD0LgWiBs-crhYszTgG-4" value="loadData" style="text;html=1;align=center;verticalAlign=middle;whiteSpace=wrap;rounded=0;fontSize=11;strokeColor=#001DBC;fillColor=#0050ef;fontColor=#ffffff;" parent="1" vertex="1">
          <mxGeometry x="210" y="300" width="60" height="20" as="geometry" />
        </mxCell>
        <mxCell id="9_TuVH1ARKfoisOt2Kd9-4" value="" style="endArrow=block;html=1;strokeWidth=4;endFill=1;endSize=0;startSize=0;fillColor=#0050ef;strokeColor=#001DBC;" parent="1" edge="1">
          <mxGeometry width="50" height="50" relative="1" as="geometry">
            <mxPoint x="191" y="310" as="sourcePoint" />
            <mxPoint x="211" y="310" as="targetPoint" />
          </mxGeometry>
        </mxCell>
        <mxCell id="JBD0LgWiBs-crhYszTgG-6" value="deq" style="text;html=1;align=center;verticalAlign=middle;whiteSpace=wrap;rounded=0;fontSize=11;strokeColor=#B20000;fillColor=#e51400;fontColor=#ffffff;" parent="1" vertex="1">
          <mxGeometry x="450" y="240" width="50" height="20" as="geometry" />
        </mxCell>
        <mxCell id="JBD0LgWiBs-crhYszTgG-7" value="first" style="text;html=1;strokeColor=#432D57;fillColor=#76608a;align=center;verticalAlign=middle;whiteSpace=wrap;rounded=0;fontSize=11;fontColor=#ffffff;" parent="1" vertex="1">
          <mxGeometry x="450" y="265" width="50" height="20" as="geometry" />
        </mxCell>
        <mxCell id="JBD0LgWiBs-crhYszTgG-8" value="notEmpty" style="text;html=1;strokeColor=#432D57;fillColor=#76608a;align=center;verticalAlign=middle;whiteSpace=wrap;rounded=0;fontSize=11;spacing=3;fontColor=#ffffff;" parent="1" vertex="1">
          <mxGeometry x="450" y="290" width="50" height="20" as="geometry" />
        </mxCell>
        <mxCell id="9_TuVH1ARKfoisOt2Kd9-2" value="" style="endArrow=block;html=1;strokeWidth=4;endFill=1;endSize=0;startSize=0;fillColor=#6d8764;strokeColor=#3A5431;" parent="1" edge="1">
          <mxGeometry width="50" height="50" relative="1" as="geometry">
            <mxPoint x="500" y="275" as="sourcePoint" />
            <mxPoint x="519" y="275" as="targetPoint" />
          </mxGeometry>
        </mxCell>
        <mxCell id="9_TuVH1ARKfoisOt2Kd9-7" value="" style="endArrow=block;html=1;strokeWidth=1;endFill=1;endSize=6;startSize=6;fillColor=#eeeeee;strokeColor=#000000;" parent="1" edge="1">
          <mxGeometry width="50" height="50" relative="1" as="geometry">
            <mxPoint x="500" y="300" as="sourcePoint" />
            <mxPoint x="519" y="300" as="targetPoint" />
          </mxGeometry>
        </mxCell>
        <mxCell id="5" value="loadKey" style="text;html=1;align=center;verticalAlign=middle;whiteSpace=wrap;rounded=0;fontSize=11;strokeColor=#6F0000;fillColor=#a20025;fontColor=#ffffff;" parent="1" vertex="1">
          <mxGeometry x="210" y="260" width="60" height="20" as="geometry" />
        </mxCell>
        <mxCell id="6" value="" style="endArrow=block;html=1;strokeWidth=4;endFill=1;endSize=0;startSize=0;fillColor=#a20025;strokeColor=#6F0000;" parent="1" edge="1">
          <mxGeometry width="50" height="50" relative="1" as="geometry">
            <mxPoint x="191" y="270" as="sourcePoint" />
            <mxPoint x="211" y="270" as="targetPoint" />
          </mxGeometry>
        </mxCell>
      </root>
    </mxGraphModel>
  </diagram>
  <diagram id="Pi1pcTYyk1H570jn6MU-" name="Page-2">
    <mxGraphModel dx="1234" dy="883" grid="1" gridSize="10" guides="1" tooltips="1" connect="1" arrows="1" fold="1" page="1" pageScale="1" pageWidth="850" pageHeight="1100" math="0" shadow="0">
      <root>
        <mxCell id="0" />
        <mxCell id="1" parent="0" />
        <mxCell id="ka38SwjS9Fziie4Ny71Z-2" value="&lt;font style=&quot;font-size: 22px&quot;&gt;&lt;b&gt;CryptoCore&lt;/b&gt;&lt;/font&gt;" style="whiteSpace=wrap;html=1;rounded=1;arcSize=7;strokeWidth=3;fillColor=#f5f5f5;strokeColor=#666666;fontColor=#333333;" parent="1" vertex="1">
          <mxGeometry x="189" y="540" width="245" height="160" as="geometry" />
        </mxCell>
        <mxCell id="ka38SwjS9Fziie4Ny71Z-3" value="start" style="text;html=1;align=center;verticalAlign=middle;whiteSpace=wrap;rounded=0;fontSize=13;spacingLeft=1;strokeColor=#005700;fillColor=#008a00;fontColor=#ffffff;spacingBottom=3;" parent="1" vertex="1">
          <mxGeometry x="169" y="570" width="51" height="20" as="geometry" />
        </mxCell>
        <mxCell id="ka38SwjS9Fziie4Ny71Z-5" value="" style="endArrow=block;html=1;strokeWidth=4;endFill=1;endSize=0;startSize=0;fillColor=#60a917;shadow=0;sketch=0;strokeColor=#2D7600;" parent="1" edge="1">
          <mxGeometry width="50" height="50" relative="1" as="geometry">
            <mxPoint x="150" y="580" as="sourcePoint" />
            <mxPoint x="170" y="580" as="targetPoint" />
          </mxGeometry>
        </mxCell>
        <mxCell id="ka38SwjS9Fziie4Ny71Z-6" value="data" style="text;html=1;align=center;verticalAlign=middle;whiteSpace=wrap;rounded=0;fontSize=13;strokeColor=#001DBC;fillColor=#0050ef;fontColor=#ffffff;" parent="1" vertex="1">
          <mxGeometry x="169" y="650" width="51" height="20" as="geometry" />
        </mxCell>
        <mxCell id="ka38SwjS9Fziie4Ny71Z-7" value="" style="endArrow=block;html=1;strokeWidth=4;endFill=1;endSize=0;startSize=0;fillColor=#0050ef;strokeColor=#001DBC;" parent="1" edge="1">
          <mxGeometry width="50" height="50" relative="1" as="geometry">
            <mxPoint x="150" y="660" as="sourcePoint" />
            <mxPoint x="170" y="660" as="targetPoint" />
          </mxGeometry>
        </mxCell>
        <mxCell id="ka38SwjS9Fziie4Ny71Z-9" value="out_data" style="text;html=1;strokeColor=#432D57;fillColor=#76608a;align=center;verticalAlign=middle;whiteSpace=wrap;rounded=0;fontSize=13;fontColor=#ffffff;" parent="1" vertex="1">
          <mxGeometry x="400" y="610" width="59" height="20" as="geometry" />
        </mxCell>
        <mxCell id="ka38SwjS9Fziie4Ny71Z-11" value="" style="endArrow=block;html=1;strokeWidth=4;endFill=1;endSize=0;startSize=0;fillColor=#6d8764;strokeColor=#3A5431;" parent="1" edge="1">
          <mxGeometry width="50" height="50" relative="1" as="geometry">
            <mxPoint x="459" y="620" as="sourcePoint" />
            <mxPoint x="478" y="620" as="targetPoint" />
          </mxGeometry>
        </mxCell>
        <mxCell id="ka38SwjS9Fziie4Ny71Z-13" value="key" style="text;html=1;align=center;verticalAlign=middle;whiteSpace=wrap;rounded=0;fontSize=13;strokeColor=#6F0000;fillColor=#a20025;fontColor=#ffffff;" parent="1" vertex="1">
          <mxGeometry x="169" y="610" width="51" height="20" as="geometry" />
        </mxCell>
        <mxCell id="ka38SwjS9Fziie4Ny71Z-14" value="" style="endArrow=block;html=1;strokeWidth=4;endFill=1;endSize=0;startSize=0;fillColor=#a20025;strokeColor=#6F0000;" parent="1" edge="1">
          <mxGeometry width="50" height="50" relative="1" as="geometry">
            <mxPoint x="150" y="620" as="sourcePoint" />
            <mxPoint x="170" y="620" as="targetPoint" />
          </mxGeometry>
        </mxCell>
      </root>
    </mxGraphModel>
  </diagram>
</mxfile>
